<svg xmlns="http://www.w3.org/2000/svg" xmlns:xlink="http://www.w3.org/1999/xlink" width="1080" zoomAndPan="magnify" viewBox="0 0 810 809.999993" height="1080" preserveAspectRatio="xMidYMid meet" version="1.0"><defs><g/><clipPath id="573cd4ab6c"><path d="M 185.113281 81 L 605 81 L 605 571 L 185.113281 571 Z M 185.113281 81 " clip-rule="nonzero"/></clipPath></defs><rect x="-81" width="972" fill="#ffffff" y="-80.999999" height="971.999992" fill-opacity="1"/><rect x="-81" width="972" fill="#ffffff" y="-80.999999" height="971.999992" fill-opacity="1"/><path fill="#0000ff" d="M 307.859375 192.652344 L 309.457031 192.652344 L 309.457031 193.851562 L 307.859375 193.851562 Z M 307.859375 192.652344 " fill-opacity="1" fill-rule="evenodd"/><g clip-path="url(#573cd4ab6c)"><path fill="#545454" d="M 267.582031 81.210938 C 233.796875 83.214844 193.230469 128.363281 199.433594 165.738281 C 204.433594 195.859375 226.695312 216.875 254.738281 231.703125 L 185.121094 231.703125 L 185.121094 330.652344 L 375.105469 330.183594 C 375.105469 330.183594 373.765625 282.773438 373.765625 232.164062 L 414.089844 232.164062 L 415.003906 331.277344 C 415.003906 331.277344 531.15625 330.652344 604.582031 330.652344 L 604.582031 231.703125 L 546.351562 231.703125 C 567.730469 218.84375 583.792969 203.832031 588.640625 190.175781 C 598.792969 156.464844 573.738281 102.59375 538.984375 96.953125 C 474.335938 86.46875 419.601562 181.136719 393.257812 231.703125 L 387.285156 231.703125 C 382.277344 164.640625 306.203125 81.023438 267.582031 81.210938 Z M 414.464844 570.820312 L 592.105469 570.820312 L 592.105469 338.503906 L 415.71875 338.671875 C 415.71875 338.671875 414.464844 508.210938 414.464844 570.820312 Z M 198.457031 338.503906 L 198.457031 570.820312 L 376.097656 570.820312 L 375.957031 339.4375 C 375.957031 339.4375 284.855469 338.503906 198.457031 338.503906 Z M 548.222656 116.457031 C 585.570312 116.105469 489.25 189.859375 447.925781 220.636719 L 426.839844 230.742188 L 417.757812 232.078125 C 439.664062 213.132812 440.515625 129.03125 544.554688 116.710938 C 545.910156 116.550781 547.128906 116.46875 548.222656 116.457031 Z M 218.816406 139.402344 C 244.832031 139.980469 344.742188 219.050781 361.390625 231.703125 L 297.910156 231.703125 C 269.871094 223.78125 238.714844 205.136719 215.488281 152.859375 C 211.191406 143.195312 212.953125 139.273438 218.816406 139.402344 Z M 218.816406 139.402344 " fill-opacity="1" fill-rule="evenodd"/></g><g fill="#545454" fill-opacity="1"><g transform="translate(135.697863, 727.184498)"><g><path d="M 46.566406 1.605469 C 58.296875 1.605469 67.191406 -3.085938 74.355469 -11.363281 L 68.054688 -18.527344 C 62.25 -12.226562 55.703125 -8.398438 47.058594 -8.398438 C 29.765625 -8.398438 18.898438 -22.726562 18.898438 -45.578125 C 18.898438 -68.179688 30.261719 -82.261719 47.429688 -82.261719 C 55.210938 -82.261719 61.261719 -78.679688 65.957031 -73.613281 L 72.132812 -81.023438 C 66.945312 -86.832031 58.296875 -92.265625 47.304688 -92.265625 C 24.332031 -92.265625 7.164062 -74.480469 7.164062 -45.207031 C 7.164062 -15.808594 24.085938 1.605469 46.566406 1.605469 Z M 46.566406 1.605469 "/></g></g></g><g fill="#545454" fill-opacity="1"><g transform="translate(214.490847, 727.184498)"><g><path d="M 45.824219 1.605469 C 68.550781 1.605469 84.484375 -16.550781 84.484375 -45.578125 C 84.484375 -74.601562 68.550781 -92.265625 45.824219 -92.265625 C 23.097656 -92.265625 7.164062 -74.601562 7.164062 -45.578125 C 7.164062 -16.550781 23.097656 1.605469 45.824219 1.605469 Z M 45.824219 -8.398438 C 29.519531 -8.398438 18.898438 -22.972656 18.898438 -45.578125 C 18.898438 -68.304688 29.519531 -82.261719 45.824219 -82.261719 C 62.003906 -82.261719 72.75 -68.304688 72.75 -45.578125 C 72.75 -22.972656 62.003906 -8.398438 45.824219 -8.398438 Z M 45.824219 -8.398438 "/></g></g></g><g fill="#545454" fill-opacity="1"><g transform="translate(306.127784, 727.184498)"><g><path d="M 44.464844 1.605469 C 62.992188 1.605469 77.074219 -8.277344 77.074219 -37.425781 L 77.074219 -90.660156 L 66.078125 -90.660156 L 66.078125 -37.054688 C 66.078125 -15.191406 56.570312 -8.398438 44.464844 -8.398438 C 32.730469 -8.398438 23.46875 -15.191406 23.46875 -37.054688 L 23.46875 -90.660156 L 11.980469 -90.660156 L 11.980469 -37.425781 C 11.980469 -8.277344 26.0625 1.605469 44.464844 1.605469 Z M 44.464844 1.605469 "/></g></g></g><g fill="#545454" fill-opacity="1"><g transform="translate(395.171201, 727.184498)"><g><path d="M 12.351562 0 L 23.839844 0 L 23.839844 -35.941406 L 38.785156 -35.941406 C 58.667969 -35.941406 72.132812 -44.835938 72.132812 -63.980469 C 72.132812 -83.742188 58.546875 -90.660156 38.289062 -90.660156 L 12.351562 -90.660156 Z M 23.839844 -45.207031 L 23.839844 -81.273438 L 36.808594 -81.273438 C 52.742188 -81.273438 60.769531 -77.074219 60.769531 -63.980469 C 60.769531 -51.011719 53.234375 -45.207031 37.300781 -45.207031 Z M 23.839844 -45.207031 "/></g></g></g><g fill="#545454" fill-opacity="1"><g transform="translate(473.223148, 727.184498)"><g><path d="M 45.824219 1.605469 C 68.550781 1.605469 84.484375 -16.550781 84.484375 -45.578125 C 84.484375 -74.601562 68.550781 -92.265625 45.824219 -92.265625 C 23.097656 -92.265625 7.164062 -74.601562 7.164062 -45.578125 C 7.164062 -16.550781 23.097656 1.605469 45.824219 1.605469 Z M 45.824219 -8.398438 C 29.519531 -8.398438 18.898438 -22.972656 18.898438 -45.578125 C 18.898438 -68.304688 29.519531 -82.261719 45.824219 -82.261719 C 62.003906 -82.261719 72.75 -68.304688 72.75 -45.578125 C 72.75 -22.972656 62.003906 -8.398438 45.824219 -8.398438 Z M 45.824219 -8.398438 "/></g></g></g><g fill="#545454" fill-opacity="1"><g transform="translate(564.860085, 727.184498)"><g><path d="M 12.351562 0 L 23.21875 0 L 23.21875 -47.554688 C 23.21875 -57.0625 22.355469 -66.699219 21.863281 -75.835938 L 22.355469 -75.835938 L 32.113281 -57.1875 L 65.09375 0 L 76.824219 0 L 76.824219 -90.660156 L 65.957031 -90.660156 L 65.957031 -43.476562 C 65.957031 -34.089844 66.820312 -23.960938 67.4375 -14.820312 L 66.820312 -14.820312 L 57.1875 -33.472656 L 24.207031 -90.660156 L 12.351562 -90.660156 Z M 12.351562 0 "/></g></g></g></svg>