<svg xmlns="http://www.w3.org/2000/svg" xmlns:xlink="http://www.w3.org/1999/xlink" width="1080" zoomAndPan="magnify" viewBox="0 0 810 809.999993" height="1080" preserveAspectRatio="xMidYMid meet" version="1.0"><defs><g/><clipPath id="506aa51d55"><path d="M 157.527344 67.832031 L 648 67.832031 L 648 558 L 157.527344 558 Z M 157.527344 67.832031 " clip-rule="nonzero"/></clipPath></defs><g clip-path="url(#506aa51d55)"><path fill="#545454" d="M 647.296875 312.71875 C 647.296875 316.726562 647.199219 320.730469 647 324.734375 C 646.804688 328.738281 646.511719 332.734375 646.117188 336.722656 C 645.726562 340.710938 645.234375 344.6875 644.644531 348.652344 C 644.058594 352.613281 643.375 356.5625 642.589844 360.492188 C 641.808594 364.425781 640.933594 368.332031 639.957031 372.222656 C 638.984375 376.109375 637.914062 379.96875 636.753906 383.804688 C 635.589844 387.640625 634.332031 391.445312 632.980469 395.21875 C 631.632812 398.992188 630.191406 402.730469 628.65625 406.433594 C 627.121094 410.136719 625.5 413.796875 623.785156 417.421875 C 622.070312 421.042969 620.269531 424.621094 618.382812 428.15625 C 616.492188 431.691406 614.515625 435.175781 612.457031 438.613281 C 610.394531 442.050781 608.253906 445.4375 606.027344 448.769531 C 603.800781 452.101562 601.492188 455.378906 599.105469 458.597656 C 596.71875 461.816406 594.253906 464.972656 591.710938 468.070312 C 589.167969 471.171875 586.550781 474.203125 583.859375 477.171875 C 581.167969 480.144531 578.40625 483.042969 575.570312 485.878906 C 572.738281 488.710938 569.835938 491.476562 566.867188 494.167969 C 563.898438 496.859375 560.863281 499.476562 557.765625 502.015625 C 554.667969 504.558594 551.507812 507.023438 548.289062 509.414062 C 545.070312 511.800781 541.792969 514.105469 538.460938 516.332031 C 535.128906 518.558594 531.746094 520.703125 528.308594 522.765625 C 524.871094 524.824219 521.382812 526.800781 517.847656 528.6875 C 514.316406 530.578125 510.734375 532.378906 507.113281 534.09375 C 503.492188 535.804688 499.828125 537.429688 496.125 538.964844 C 492.421875 540.496094 488.683594 541.9375 484.910156 543.289062 C 481.136719 544.640625 477.332031 545.894531 473.496094 547.058594 C 469.664062 548.222656 465.800781 549.292969 461.914062 550.265625 C 458.027344 551.238281 454.117188 552.117188 450.1875 552.898438 C 446.253906 553.679688 442.308594 554.367188 438.34375 554.953125 C 434.378906 555.542969 430.402344 556.03125 426.414062 556.425781 C 422.425781 556.816406 418.429688 557.113281 414.425781 557.308594 C 410.425781 557.503906 406.417969 557.605469 402.410156 557.605469 C 398.402344 557.605469 394.398438 557.503906 390.394531 557.308594 C 386.390625 557.113281 382.398438 556.816406 378.410156 556.425781 C 374.421875 556.03125 370.445312 555.542969 366.480469 554.953125 C 362.515625 554.367188 358.566406 553.679688 354.636719 552.898438 C 350.707031 552.117188 346.796875 551.238281 342.910156 550.265625 C 339.019531 549.292969 335.160156 548.222656 331.324219 547.058594 C 327.488281 545.894531 323.683594 544.640625 319.910156 543.289062 C 316.136719 541.9375 312.402344 540.496094 308.699219 538.964844 C 304.996094 537.429688 301.332031 535.804688 297.710938 534.09375 C 294.085938 532.378906 290.507812 530.578125 286.972656 528.6875 C 283.4375 526.800781 279.953125 524.824219 276.515625 522.765625 C 273.078125 520.703125 269.691406 518.558594 266.359375 516.332031 C 263.027344 514.105469 259.753906 511.800781 256.535156 509.414062 C 253.3125 507.023438 250.15625 504.558594 247.058594 502.015625 C 243.960938 499.476562 240.925781 496.859375 237.957031 494.167969 C 234.988281 491.476562 232.085938 488.710938 229.25 485.878906 C 226.417969 483.042969 223.65625 480.144531 220.964844 477.171875 C 218.273438 474.203125 215.65625 471.171875 213.113281 468.070312 C 210.570312 464.972656 208.105469 461.816406 205.71875 458.597656 C 203.332031 455.378906 201.023438 452.101562 198.796875 448.769531 C 196.570312 445.4375 194.425781 442.050781 192.367188 438.613281 C 190.304688 435.175781 188.332031 431.691406 186.441406 428.15625 C 184.550781 424.621094 182.75 421.042969 181.039062 417.421875 C 179.324219 413.796875 177.699219 410.136719 176.167969 406.433594 C 174.632812 402.730469 173.191406 398.992188 171.839844 395.21875 C 170.492188 391.445312 169.234375 387.640625 168.070312 383.804688 C 166.90625 379.96875 165.839844 376.109375 164.863281 372.222656 C 163.890625 368.332031 163.011719 364.425781 162.230469 360.492188 C 161.449219 356.5625 160.765625 352.613281 160.175781 348.652344 C 159.589844 344.6875 159.097656 340.710938 158.707031 336.722656 C 158.3125 332.734375 158.015625 328.738281 157.820312 324.734375 C 157.625 320.730469 157.527344 316.726562 157.527344 312.71875 C 157.527344 308.710938 157.625 304.707031 157.820312 300.703125 C 158.015625 296.699219 158.3125 292.703125 158.707031 288.714844 C 159.097656 284.726562 159.589844 280.75 160.175781 276.785156 C 160.765625 272.820312 161.449219 268.875 162.230469 264.945312 C 163.011719 261.011719 163.890625 257.105469 164.863281 253.214844 C 165.839844 249.328125 166.90625 245.46875 168.070312 241.632812 C 169.234375 237.796875 170.492188 233.992188 171.839844 230.21875 C 173.191406 226.445312 174.632812 222.707031 176.167969 219.003906 C 177.699219 215.300781 179.324219 211.640625 181.039062 208.015625 C 182.75 204.394531 184.550781 200.816406 186.441406 197.28125 C 188.332031 193.746094 190.304688 190.261719 192.367188 186.824219 C 194.425781 183.386719 196.570312 180 198.796875 176.667969 C 201.023438 173.335938 203.332031 170.058594 205.71875 166.839844 C 208.105469 163.621094 210.570312 160.464844 213.113281 157.363281 C 215.65625 154.265625 218.273438 151.234375 220.964844 148.261719 C 223.65625 145.292969 226.417969 142.390625 229.25 139.558594 C 232.085938 136.722656 234.988281 133.960938 237.957031 131.269531 C 240.925781 128.578125 243.960938 125.960938 247.058594 123.417969 C 250.15625 120.878906 253.3125 118.414062 256.535156 116.023438 C 259.753906 113.636719 263.027344 111.332031 266.359375 109.105469 C 269.691406 106.878906 273.078125 104.734375 276.515625 102.671875 C 279.953125 100.613281 283.4375 98.636719 286.972656 96.75 C 290.507812 94.859375 294.085938 93.058594 297.710938 91.34375 C 301.332031 89.632812 304.996094 88.007812 308.699219 86.472656 C 312.402344 84.941406 316.136719 83.5 319.910156 82.148438 C 323.683594 80.796875 327.488281 79.542969 331.324219 78.378906 C 335.160156 77.214844 339.019531 76.144531 342.910156 75.171875 C 346.796875 74.199219 350.707031 73.320312 354.636719 72.539062 C 358.566406 71.757812 362.515625 71.070312 366.480469 70.484375 C 370.445312 69.894531 374.421875 69.40625 378.410156 69.011719 C 382.398438 68.621094 386.390625 68.324219 390.394531 68.128906 C 394.398438 67.929688 398.402344 67.832031 402.410156 67.832031 C 406.417969 67.832031 410.425781 67.929688 414.425781 68.128906 C 418.429688 68.324219 422.425781 68.621094 426.414062 69.011719 C 430.402344 69.40625 434.378906 69.894531 438.34375 70.484375 C 442.308594 71.070312 446.253906 71.757812 450.1875 72.539062 C 454.117188 73.320312 458.027344 74.199219 461.914062 75.171875 C 465.800781 76.144531 469.664062 77.214844 473.496094 78.378906 C 477.332031 79.542969 481.136719 80.796875 484.910156 82.148438 C 488.683594 83.5 492.421875 84.941406 496.125 86.472656 C 499.828125 88.007812 503.492188 89.632812 507.113281 91.34375 C 510.734375 93.058594 514.316406 94.859375 517.847656 96.75 C 521.382812 98.636719 524.871094 100.613281 528.308594 102.671875 C 531.746094 104.734375 535.128906 106.878906 538.460938 109.105469 C 541.792969 111.332031 545.070312 113.636719 548.289062 116.023438 C 551.507812 118.414062 554.667969 120.878906 557.765625 123.417969 C 560.863281 125.960938 563.898438 128.578125 566.867188 131.269531 C 569.835938 133.960938 572.738281 136.722656 575.570312 139.558594 C 578.40625 142.390625 581.167969 145.292969 583.859375 148.261719 C 586.550781 151.234375 589.167969 154.265625 591.710938 157.363281 C 594.253906 160.464844 596.71875 163.621094 599.105469 166.839844 C 601.492188 170.058594 603.800781 173.335938 606.027344 176.667969 C 608.253906 180 610.394531 183.386719 612.457031 186.824219 C 614.515625 190.261719 616.492188 193.746094 618.382812 197.28125 C 620.269531 200.816406 622.070312 204.394531 623.785156 208.015625 C 625.5 211.640625 627.121094 215.300781 628.65625 219.003906 C 630.191406 222.707031 631.632812 226.445312 632.980469 230.21875 C 634.332031 233.992188 635.589844 237.796875 636.753906 241.632812 C 637.914062 245.46875 638.984375 249.328125 639.957031 253.214844 C 640.933594 257.105469 641.808594 261.011719 642.589844 264.945312 C 643.375 268.875 644.058594 272.820312 644.644531 276.785156 C 645.234375 280.75 645.726562 284.726562 646.117188 288.714844 C 646.511719 292.703125 646.804688 296.699219 647 300.703125 C 647.199219 304.707031 647.296875 308.710938 647.296875 312.71875 Z M 647.296875 312.71875 " fill-opacity="1" fill-rule="nonzero"/></g><path fill="#ece9e6" d="M 339.835938 203.875 C 368.257812 203.875 392.917969 220.027344 405.140625 243.652344 C 417.351562 220.027344 442.019531 203.875 470.429688 203.875 C 511.007812 203.875 543.898438 236.773438 543.898438 277.339844 C 543.898438 374.871094 432.742188 429.941406 406.605469 429.941406 C 375.898438 429.941406 266.371094 375.746094 266.371094 277.339844 C 266.371094 236.773438 299.261719 203.871094 339.835938 203.871094 Z M 339.835938 203.875 " fill-opacity="1" fill-rule="evenodd"/><g fill="#545454" fill-opacity="1"><g transform="translate(155.390415, 714.017547)"><g><path d="M 40.140625 -33.347656 L 21.246094 -27.050781 L 21.246094 -89.671875 L 12.226562 -89.671875 L 12.226562 -29.273438 C 12.226562 -24.457031 9.757812 -22.109375 8.027344 -20.996094 C 9.261719 -19.019531 11.117188 -14.945312 11.734375 -12.597656 C 14.082031 -14.574219 17.664062 -16.304688 40.140625 -24.578125 L 40.140625 9.632812 L 49.160156 9.632812 L 49.160156 -101.40625 L 40.140625 -101.40625 Z M 72.503906 -70.773438 L 99.183594 -70.773438 C 96.589844 -55.210938 92.636719 -41.746094 86.707031 -30.632812 C 80.160156 -41.996094 75.34375 -55.085938 71.761719 -68.921875 Z M 117.585938 -70.773438 L 117.585938 -79.417969 L 75.34375 -79.417969 C 77.320312 -86.582031 79.171875 -94.117188 80.53125 -101.777344 L 71.144531 -103.382812 C 67.6875 -82.011719 61.140625 -61.878906 50.640625 -49.40625 C 52.617188 -47.675781 55.828125 -43.601562 57.1875 -41.746094 C 60.769531 -46.316406 64.105469 -51.628906 66.945312 -57.558594 C 70.648438 -44.589844 75.589844 -32.730469 81.644531 -22.355469 C 74.480469 -12.105469 64.96875 -3.953125 52.617188 2.101562 C 54.59375 3.953125 57.558594 7.65625 58.546875 9.632812 C 70.28125 3.335938 79.542969 -4.570312 86.832031 -14.328125 C 93.871094 -4.570312 102.269531 3.457031 112.273438 9.015625 C 113.632812 6.546875 116.597656 3.335938 118.695312 1.480469 C 108.074219 -3.707031 99.304688 -11.980469 92.019531 -22.109375 C 99.921875 -35.324219 104.988281 -51.257812 108.445312 -70.773438 Z M 117.585938 -70.773438 "/></g></g></g><g fill="#545454" fill-opacity="1"><g transform="translate(278.89031, 714.017547)"><g><path d="M 33.964844 -78.0625 L 42.984375 -78.0625 L 42.984375 -86.832031 L 58.050781 -86.832031 L 58.050781 -94.734375 L 42.984375 -94.734375 L 42.984375 -103.382812 L 33.964844 -103.382812 L 33.964844 -94.734375 L 7.90625 -94.734375 L 7.90625 -86.832031 L 33.964844 -86.832031 Z M 49.40625 -20.007812 L 59.535156 -20.007812 L 59.535156 -11.238281 L 49.40625 -11.238281 Z M 59.535156 -51.628906 L 59.535156 -43.105469 L 49.40625 -43.105469 L 49.40625 -51.628906 Z M 72.253906 -26.0625 L 49.40625 -26.0625 L 49.40625 -36.929688 L 72.253906 -36.929688 Z M 102.761719 -57.929688 C 100.910156 -47.921875 98.195312 -38.785156 94.734375 -30.382812 C 93.128906 -40.019531 91.894531 -51.628906 91.277344 -65.710938 L 117.214844 -65.710938 L 117.214844 -73.613281 L 109.1875 -73.613281 L 112.519531 -76.207031 C 110.050781 -79.296875 104.738281 -83.25 100.417969 -85.59375 L 94.859375 -81.394531 C 98.5625 -79.296875 102.394531 -76.207031 105.109375 -73.613281 L 91.03125 -73.613281 C 91.03125 -76.207031 90.90625 -78.800781 90.90625 -81.644531 L 88.683594 -81.644531 L 88.683594 -86.832031 L 116.226562 -86.832031 L 116.226562 -94.734375 L 88.683594 -94.734375 L 88.683594 -103.382812 L 79.667969 -103.382812 L 79.667969 -94.734375 L 64.105469 -94.734375 L 64.105469 -86.832031 L 79.667969 -86.832031 L 79.667969 -78.679688 L 82.753906 -78.679688 L 82.878906 -73.613281 L 28.285156 -73.613281 L 28.285156 -51.875 L 18.15625 -51.875 L 18.15625 -72.996094 L 10.992188 -72.996094 L 10.992188 -44.339844 L 28.285156 -44.339844 L 28.285156 -39.773438 C 28.285156 -38.042969 28.285156 -36.066406 28.285156 -34.214844 L 5.558594 -34.214844 L 5.558594 -26.433594 L 12.351562 -26.433594 L 12.351562 -20.996094 C 12.351562 -13.464844 11.238281 -2.347656 4.695312 5.558594 C 6.300781 6.421875 9.015625 8.277344 10.25 9.511719 C 17.910156 0.742188 19.269531 -12.105469 19.269531 -20.75 L 19.269531 -26.433594 L 27.914062 -26.433594 C 27.296875 -15.4375 25.445312 -3.582031 20.378906 5.683594 C 22.234375 6.421875 25.8125 8.523438 27.296875 9.757812 C 34.953125 -4.074219 36.191406 -24.578125 36.191406 -39.773438 L 36.191406 -65.710938 L 83.25 -65.710938 C 84.359375 -46.6875 86.335938 -31.003906 88.929688 -18.898438 C 86.335938 -14.328125 83.371094 -10.128906 80.035156 -6.421875 L 80.035156 -11.238281 L 66.203125 -11.238281 L 66.203125 -20.007812 L 79.050781 -20.007812 L 79.050781 -43.105469 L 66.203125 -43.105469 L 66.203125 -51.628906 L 79.050781 -51.628906 L 79.050781 -57.929688 L 42.488281 -57.929688 L 42.488281 -4.816406 L 78.554688 -4.816406 C 75.46875 -1.605469 72.132812 1.359375 68.550781 4.074219 C 70.527344 5.433594 73.984375 8.152344 75.46875 9.757812 C 81.644531 4.695312 87.078125 -1.480469 92.019531 -8.277344 C 95.96875 3.457031 101.28125 9.632812 107.582031 9.632812 C 114.496094 9.632812 117.339844 6.546875 118.695312 -9.882812 C 116.597656 -10.5 114.003906 -12.351562 112.273438 -13.832031 C 111.65625 -1.851562 110.421875 1.359375 108.199219 1.480469 C 104.617188 1.480469 100.664062 -4.695312 97.328125 -17.167969 C 103.382812 -28.410156 108.074219 -41.625 111.039062 -56.570312 Z M 102.761719 -57.929688 "/></g></g></g><g fill="#545454" fill-opacity="1"><g transform="translate(402.390206, 714.017547)"><g><path d="M 35.820312 -87.449219 C 31.371094 -91.277344 22.726562 -97.328125 16.425781 -101.40625 L 10.992188 -95.230469 C 17.414062 -90.660156 25.8125 -84.238281 30.382812 -80.40625 Z M 29.644531 -56.691406 C 25.074219 -59.90625 15.808594 -64.96875 9.386719 -68.425781 L 4.816406 -61.386719 C 11.488281 -57.679688 20.378906 -52.371094 24.949219 -48.910156 Z M 15.070312 7.410156 C 21.492188 -3.953125 29.027344 -19.515625 34.707031 -32.359375 L 28.039062 -37.671875 C 21.984375 -23.589844 13.585938 -7.410156 7.65625 2.222656 Z M 54.964844 -17.167969 C 55.210938 -20.503906 55.335938 -23.839844 55.335938 -26.800781 L 99.183594 -26.800781 L 99.183594 -17.167969 Z M 99.183594 -42.859375 L 99.183594 -33.226562 L 55.335938 -33.226562 L 55.335938 -42.859375 Z M 108.445312 -49.777344 L 46.316406 -49.777344 L 46.316406 -27.296875 C 46.316406 -17.664062 45.699219 -5.433594 38.90625 3.828125 C 40.882812 4.941406 44.464844 8.398438 45.824219 10.375 C 50.394531 4.445312 52.863281 -2.964844 53.976562 -10.5 L 99.183594 -10.5 L 99.183594 -0.742188 C 99.183594 0.742188 98.6875 1.234375 96.957031 1.359375 C 95.351562 1.359375 89.546875 1.359375 83.742188 1.234375 C 84.855469 3.457031 86.089844 6.792969 86.582031 9.140625 C 95.105469 9.140625 100.539062 9.140625 103.875 7.78125 C 107.332031 6.421875 108.445312 4.199219 108.445312 -0.617188 Z M 81.644531 -64.226562 L 81.644531 -73.367188 L 112.027344 -73.367188 L 112.027344 -80.160156 L 81.644531 -80.160156 L 81.644531 -88.4375 L 115.855469 -88.4375 L 115.855469 -95.351562 L 81.644531 -95.351562 L 81.644531 -103.382812 L 72.625 -103.382812 L 72.625 -95.351562 L 38.414062 -95.351562 L 38.414062 -88.4375 L 72.625 -88.4375 L 72.625 -80.160156 L 41.5 -80.160156 L 41.5 -73.367188 L 72.625 -73.367188 L 72.625 -64.226562 L 34.460938 -64.226562 L 34.460938 -57.1875 L 118.203125 -57.1875 L 118.203125 -64.226562 Z M 81.644531 -64.226562 "/></g></g></g><g fill="#545454" fill-opacity="1"><g transform="translate(525.890102, 714.017547)"><g><path d="M 99.183594 -80.777344 L 75.34375 -80.777344 L 75.34375 -92.386719 L 99.183594 -92.386719 Z M 107.703125 -98.5625 L 66.945312 -98.5625 L 66.945312 -74.601562 L 107.703125 -74.601562 Z M 48.417969 -80.777344 L 24.828125 -80.777344 L 24.828125 -92.386719 L 48.417969 -92.386719 Z M 57.0625 -98.5625 L 16.550781 -98.5625 L 16.550781 -74.601562 L 57.0625 -74.601562 Z M 28.777344 -32.855469 L 28.777344 -43.476562 L 56.691406 -43.476562 L 56.691406 -32.855469 Z M 28.777344 -61.015625 L 56.691406 -61.015625 L 56.691406 -50.515625 L 28.777344 -50.515625 Z M 95.476562 -50.515625 L 66.078125 -50.515625 L 66.078125 -61.015625 L 95.476562 -61.015625 Z M 95.476562 -32.855469 L 66.078125 -32.855469 L 66.078125 -43.476562 L 95.476562 -43.476562 Z M 116.226562 -16.058594 L 66.078125 -16.058594 L 66.078125 -25.445312 L 104.863281 -25.445312 L 104.863281 -68.425781 L 19.886719 -68.425781 L 19.886719 -25.445312 L 56.691406 -25.445312 L 56.691406 -16.058594 L 7.535156 -16.058594 L 7.535156 -8.027344 L 56.691406 -8.027344 L 56.691406 9.386719 L 66.078125 9.386719 L 66.078125 -8.027344 L 116.226562 -8.027344 Z M 116.226562 -16.058594 "/></g></g></g></svg>