<svg xmlns="http://www.w3.org/2000/svg" xmlns:xlink="http://www.w3.org/1999/xlink" width="1080" zoomAndPan="magnify" viewBox="0 0 810 809.999993" height="1080" preserveAspectRatio="xMidYMid meet" version="1.0"><defs><g/><clipPath id="c7b2b272f5"><path d="M 228.535156 181.242188 L 294 181.242188 L 294 247 L 228.535156 247 Z M 228.535156 181.242188 " clip-rule="nonzero"/></clipPath><clipPath id="1af6ebae39"><path d="M 331 190 L 586.285156 190 L 586.285156 237 L 331 237 Z M 331 190 " clip-rule="nonzero"/></clipPath><clipPath id="32c1ec9772"><path d="M 228.535156 293 L 294 293 L 294 358 L 228.535156 358 Z M 228.535156 293 " clip-rule="nonzero"/></clipPath><clipPath id="1ba4ccd6e5"><path d="M 331 302 L 586.285156 302 L 586.285156 349 L 331 349 Z M 331 302 " clip-rule="nonzero"/></clipPath><clipPath id="48187a8ea6"><path d="M 228.535156 405 L 294 405 L 294 470.742188 L 228.535156 470.742188 Z M 228.535156 405 " clip-rule="nonzero"/></clipPath><clipPath id="d84c7b6135"><path d="M 331 415 L 586.285156 415 L 586.285156 461 L 331 461 Z M 331 415 " clip-rule="nonzero"/></clipPath><clipPath id="600c57ba88"><path d="M 137.234375 81 L 677.234375 81 L 677.234375 570.75 L 137.234375 570.75 Z M 137.234375 81 " clip-rule="nonzero"/></clipPath><clipPath id="8e03ffaa89"><path d="M 170.984375 81 L 643.742188 81 C 652.695312 81 661.277344 84.558594 667.609375 90.886719 C 673.9375 97.214844 677.492188 105.800781 677.492188 114.75 L 677.492188 537.117188 C 677.492188 546.066406 673.9375 554.652344 667.609375 560.980469 C 661.277344 567.308594 652.695312 570.867188 643.742188 570.867188 L 170.984375 570.867188 C 162.035156 570.867188 153.449219 567.308594 147.121094 560.980469 C 140.789062 554.652344 137.234375 546.066406 137.234375 537.117188 L 137.234375 114.75 C 137.234375 105.800781 140.789062 97.214844 147.121094 90.886719 C 153.449219 84.558594 162.035156 81 170.984375 81 Z M 170.984375 81 " clip-rule="nonzero"/></clipPath></defs><rect x="-81" width="972" fill="#ffffff" y="-80.999999" height="971.999992" fill-opacity="1"/><rect x="-81" width="972" fill="#ffffff" y="-80.999999" height="971.999992" fill-opacity="1"/><g clip-path="url(#c7b2b272f5)"><path fill="#545454" d="M 293.191406 213.71875 C 293.191406 214.777344 293.136719 215.835938 293.035156 216.886719 C 292.929688 217.941406 292.773438 218.988281 292.570312 220.027344 C 292.363281 221.066406 292.105469 222.089844 291.796875 223.105469 C 291.492188 224.117188 291.132812 225.113281 290.730469 226.089844 C 290.324219 227.070312 289.871094 228.023438 289.371094 228.957031 C 288.875 229.890625 288.332031 230.796875 287.742188 231.679688 C 287.152344 232.558594 286.523438 233.410156 285.851562 234.226562 C 285.179688 235.046875 284.472656 235.828125 283.722656 236.578125 C 282.972656 237.324219 282.191406 238.035156 281.371094 238.707031 C 280.554688 239.378906 279.703125 240.007812 278.824219 240.597656 C 277.945312 241.183594 277.035156 241.730469 276.101562 242.226562 C 275.167969 242.726562 274.214844 243.179688 273.234375 243.585938 C 272.257812 243.988281 271.261719 244.347656 270.25 244.652344 C 269.234375 244.960938 268.210938 245.21875 267.171875 245.425781 C 266.132812 245.628906 265.085938 245.785156 264.035156 245.890625 C 262.980469 245.992188 261.921875 246.046875 260.863281 246.046875 C 259.804688 246.046875 258.75 245.992188 257.695312 245.890625 C 256.644531 245.785156 255.597656 245.628906 254.558594 245.425781 C 253.519531 245.21875 252.496094 244.960938 251.480469 244.652344 C 250.46875 244.347656 249.472656 243.988281 248.496094 243.585938 C 247.515625 243.179688 246.5625 242.726562 245.628906 242.226562 C 244.691406 241.730469 243.785156 241.183594 242.90625 240.597656 C 242.027344 240.007812 241.175781 239.378906 240.359375 238.707031 C 239.539062 238.035156 238.757812 237.324219 238.007812 236.578125 C 237.257812 235.828125 236.550781 235.046875 235.878906 234.226562 C 235.207031 233.410156 234.574219 232.558594 233.988281 231.679688 C 233.398438 230.796875 232.855469 229.890625 232.355469 228.957031 C 231.859375 228.023438 231.40625 227.070312 231 226.089844 C 230.59375 225.113281 230.238281 224.117188 229.933594 223.105469 C 229.625 222.089844 229.367188 221.066406 229.160156 220.027344 C 228.953125 218.988281 228.800781 217.941406 228.695312 216.886719 C 228.589844 215.835938 228.539062 214.777344 228.539062 213.71875 C 228.539062 212.660156 228.589844 211.605469 228.695312 210.550781 C 228.800781 209.5 228.953125 208.453125 229.160156 207.414062 C 229.367188 206.375 229.625 205.351562 229.933594 204.335938 C 230.238281 203.324219 230.59375 202.328125 231 201.351562 C 231.40625 200.371094 231.859375 199.414062 232.355469 198.480469 C 232.855469 197.546875 233.398438 196.640625 233.988281 195.761719 C 234.574219 194.882812 235.207031 194.03125 235.878906 193.214844 C 236.550781 192.394531 237.257812 191.613281 238.007812 190.863281 C 238.757812 190.113281 239.539062 189.402344 240.359375 188.734375 C 241.175781 188.0625 242.027344 187.429688 242.90625 186.84375 C 243.785156 186.253906 244.691406 185.710938 245.628906 185.210938 C 246.5625 184.710938 247.515625 184.261719 248.496094 183.855469 C 249.472656 183.449219 250.46875 183.09375 251.480469 182.785156 C 252.496094 182.480469 253.519531 182.222656 254.558594 182.015625 C 255.597656 181.808594 256.644531 181.65625 257.695312 181.550781 C 258.75 181.445312 259.804688 181.394531 260.863281 181.394531 C 261.921875 181.394531 262.980469 181.445312 264.035156 181.550781 C 265.085938 181.65625 266.132812 181.808594 267.171875 182.015625 C 268.210938 182.222656 269.234375 182.480469 270.25 182.785156 C 271.261719 183.09375 272.257812 183.449219 273.234375 183.855469 C 274.214844 184.261719 275.167969 184.710938 276.101562 185.210938 C 277.035156 185.710938 277.945312 186.253906 278.824219 186.84375 C 279.703125 187.429688 280.554688 188.0625 281.371094 188.734375 C 282.191406 189.402344 282.972656 190.113281 283.722656 190.863281 C 284.472656 191.613281 285.179688 192.394531 285.851562 193.214844 C 286.523438 194.03125 287.152344 194.882812 287.742188 195.761719 C 288.332031 196.640625 288.875 197.546875 289.371094 198.480469 C 289.871094 199.414062 290.324219 200.371094 290.730469 201.351562 C 291.132812 202.328125 291.492188 203.324219 291.796875 204.335938 C 292.105469 205.351562 292.363281 206.375 292.570312 207.414062 C 292.773438 208.453125 292.929688 209.5 293.035156 210.550781 C 293.136719 211.605469 293.191406 212.660156 293.191406 213.71875 Z M 293.191406 213.71875 " fill-opacity="1" fill-rule="nonzero"/></g><g clip-path="url(#1af6ebae39)"><path fill="#545454" d="M 331.066406 190.789062 L 586.242188 190.789062 L 586.242188 236.652344 L 331.066406 236.652344 Z M 331.066406 190.789062 " fill-opacity="1" fill-rule="nonzero"/></g><g clip-path="url(#32c1ec9772)"><path fill="#545454" d="M 293.191406 325.566406 C 293.191406 326.625 293.136719 327.683594 293.035156 328.738281 C 292.929688 329.789062 292.773438 330.835938 292.570312 331.875 C 292.363281 332.914062 292.105469 333.9375 291.796875 334.953125 C 291.492188 335.964844 291.132812 336.960938 290.730469 337.9375 C 290.324219 338.917969 289.871094 339.871094 289.371094 340.804688 C 288.875 341.738281 288.332031 342.648438 287.742188 343.527344 C 287.152344 344.40625 286.523438 345.257812 285.851562 346.074219 C 285.179688 346.894531 284.472656 347.675781 283.722656 348.425781 C 282.972656 349.175781 282.191406 349.882812 281.371094 350.554688 C 280.554688 351.226562 279.703125 351.855469 278.824219 352.445312 C 277.945312 353.035156 277.035156 353.578125 276.101562 354.078125 C 275.167969 354.574219 274.214844 355.027344 273.234375 355.433594 C 272.257812 355.835938 271.261719 356.195312 270.25 356.5 C 269.234375 356.808594 268.210938 357.066406 267.171875 357.273438 C 266.132812 357.480469 265.085938 357.632812 264.035156 357.738281 C 262.980469 357.839844 261.921875 357.894531 260.863281 357.894531 C 259.804688 357.894531 258.75 357.839844 257.695312 357.738281 C 256.644531 357.632812 255.597656 357.480469 254.558594 357.273438 C 253.519531 357.066406 252.496094 356.808594 251.480469 356.5 C 250.46875 356.195312 249.472656 355.835938 248.496094 355.433594 C 247.515625 355.027344 246.5625 354.574219 245.628906 354.078125 C 244.691406 353.578125 243.785156 353.035156 242.90625 352.445312 C 242.027344 351.855469 241.175781 351.226562 240.359375 350.554688 C 239.539062 349.882812 238.757812 349.175781 238.007812 348.425781 C 237.257812 347.675781 236.550781 346.894531 235.878906 346.074219 C 235.207031 345.257812 234.574219 344.40625 233.988281 343.527344 C 233.398438 342.648438 232.855469 341.738281 232.355469 340.804688 C 231.859375 339.871094 231.40625 338.917969 231 337.9375 C 230.59375 336.960938 230.238281 335.964844 229.933594 334.953125 C 229.625 333.9375 229.367188 332.914062 229.160156 331.875 C 228.953125 330.835938 228.800781 329.789062 228.695312 328.738281 C 228.589844 327.683594 228.539062 326.625 228.539062 325.566406 C 228.539062 324.507812 228.589844 323.453125 228.695312 322.398438 C 228.800781 321.347656 228.953125 320.300781 229.160156 319.261719 C 229.367188 318.222656 229.625 317.199219 229.933594 316.183594 C 230.238281 315.171875 230.59375 314.175781 231 313.199219 C 231.40625 312.21875 231.859375 311.265625 232.355469 310.332031 C 232.855469 309.398438 233.398438 308.488281 233.988281 307.609375 C 234.574219 306.730469 235.207031 305.878906 235.878906 305.0625 C 236.550781 304.242188 237.257812 303.460938 238.007812 302.710938 C 238.757812 301.960938 239.539062 301.253906 240.359375 300.582031 C 241.175781 299.910156 242.027344 299.277344 242.90625 298.691406 C 243.785156 298.101562 244.691406 297.558594 245.628906 297.058594 C 246.5625 296.5625 247.515625 296.109375 248.496094 295.703125 C 249.472656 295.296875 250.46875 294.941406 251.480469 294.636719 C 252.496094 294.328125 253.519531 294.070312 254.558594 293.863281 C 255.597656 293.65625 256.644531 293.503906 257.695312 293.398438 C 258.75 293.296875 259.804688 293.242188 260.863281 293.242188 C 261.921875 293.242188 262.980469 293.296875 264.035156 293.398438 C 265.085938 293.503906 266.132812 293.65625 267.171875 293.863281 C 268.210938 294.070312 269.234375 294.328125 270.25 294.636719 C 271.261719 294.941406 272.257812 295.296875 273.234375 295.703125 C 274.214844 296.109375 275.167969 296.5625 276.101562 297.058594 C 277.035156 297.558594 277.945312 298.101562 278.824219 298.691406 C 279.703125 299.277344 280.554688 299.910156 281.371094 300.582031 C 282.191406 301.253906 282.972656 301.960938 283.722656 302.710938 C 284.472656 303.460938 285.179688 304.242188 285.851562 305.0625 C 286.523438 305.878906 287.152344 306.730469 287.742188 307.609375 C 288.332031 308.488281 288.875 309.398438 289.371094 310.332031 C 289.871094 311.265625 290.324219 312.21875 290.730469 313.199219 C 291.132812 314.175781 291.492188 315.171875 291.796875 316.183594 C 292.105469 317.199219 292.363281 318.222656 292.570312 319.261719 C 292.773438 320.300781 292.929688 321.347656 293.035156 322.398438 C 293.136719 323.453125 293.191406 324.507812 293.191406 325.566406 Z M 293.191406 325.566406 " fill-opacity="1" fill-rule="nonzero"/></g><g clip-path="url(#1ba4ccd6e5)"><path fill="#545454" d="M 331.066406 302.632812 L 586.242188 302.632812 L 586.242188 348.496094 L 331.066406 348.496094 Z M 331.066406 302.632812 " fill-opacity="1" fill-rule="nonzero"/></g><g clip-path="url(#48187a8ea6)"><path fill="#545454" d="M 293.191406 438.050781 C 293.191406 439.109375 293.136719 440.164062 293.035156 441.21875 C 292.929688 442.273438 292.773438 443.320312 292.570312 444.355469 C 292.363281 445.394531 292.105469 446.421875 291.796875 447.433594 C 291.492188 448.449219 291.132812 449.441406 290.730469 450.421875 C 290.324219 451.398438 289.871094 452.355469 289.371094 453.289062 C 288.875 454.222656 288.332031 455.128906 287.742188 456.007812 C 287.152344 456.890625 286.523438 457.738281 285.851562 458.558594 C 285.179688 459.375 284.472656 460.160156 283.722656 460.90625 C 282.972656 461.65625 282.191406 462.367188 281.371094 463.039062 C 280.554688 463.710938 279.703125 464.339844 278.824219 464.929688 C 277.945312 465.515625 277.035156 466.058594 276.101562 466.558594 C 275.167969 467.058594 274.214844 467.511719 273.234375 467.914062 C 272.257812 468.320312 271.261719 468.675781 270.25 468.984375 C 269.234375 469.292969 268.210938 469.546875 267.171875 469.753906 C 266.132812 469.960938 265.085938 470.117188 264.035156 470.21875 C 262.980469 470.324219 261.921875 470.375 260.863281 470.375 C 259.804688 470.375 258.75 470.324219 257.695312 470.21875 C 256.644531 470.117188 255.597656 469.960938 254.558594 469.753906 C 253.519531 469.546875 252.496094 469.292969 251.480469 468.984375 C 250.46875 468.675781 249.472656 468.320312 248.496094 467.914062 C 247.515625 467.511719 246.5625 467.058594 245.628906 466.558594 C 244.691406 466.058594 243.785156 465.515625 242.90625 464.929688 C 242.027344 464.339844 241.175781 463.710938 240.359375 463.039062 C 239.539062 462.367188 238.757812 461.65625 238.007812 460.90625 C 237.257812 460.160156 236.550781 459.375 235.878906 458.558594 C 235.207031 457.738281 234.574219 456.890625 233.988281 456.007812 C 233.398438 455.128906 232.855469 454.222656 232.355469 453.289062 C 231.859375 452.355469 231.40625 451.398438 231 450.421875 C 230.59375 449.441406 230.238281 448.449219 229.933594 447.433594 C 229.625 446.421875 229.367188 445.394531 229.160156 444.355469 C 228.953125 443.320312 228.800781 442.273438 228.695312 441.21875 C 228.589844 440.164062 228.539062 439.109375 228.539062 438.050781 C 228.539062 436.992188 228.589844 435.9375 228.695312 434.882812 C 228.800781 433.828125 228.953125 432.78125 229.160156 431.746094 C 229.367188 430.707031 229.625 429.679688 229.933594 428.667969 C 230.238281 427.652344 230.59375 426.660156 231 425.679688 C 231.40625 424.703125 231.859375 423.746094 232.355469 422.8125 C 232.855469 421.878906 233.398438 420.972656 233.988281 420.09375 C 234.574219 419.210938 235.207031 418.363281 235.878906 417.542969 C 236.550781 416.726562 237.257812 415.941406 238.007812 415.195312 C 238.757812 414.445312 239.539062 413.734375 240.359375 413.0625 C 241.175781 412.390625 242.027344 411.761719 242.90625 411.171875 C 243.785156 410.585938 244.691406 410.042969 245.628906 409.542969 C 246.5625 409.042969 247.515625 408.589844 248.496094 408.1875 C 249.472656 407.78125 250.46875 407.425781 251.480469 407.117188 C 252.496094 406.808594 253.519531 406.554688 254.558594 406.347656 C 255.597656 406.140625 256.644531 405.984375 257.695312 405.882812 C 258.75 405.777344 259.804688 405.726562 260.863281 405.726562 C 261.921875 405.726562 262.980469 405.777344 264.035156 405.882812 C 265.085938 405.984375 266.132812 406.140625 267.171875 406.347656 C 268.210938 406.554688 269.234375 406.808594 270.25 407.117188 C 271.261719 407.425781 272.257812 407.78125 273.234375 408.1875 C 274.214844 408.589844 275.167969 409.042969 276.101562 409.542969 C 277.035156 410.042969 277.945312 410.585938 278.824219 411.171875 C 279.703125 411.761719 280.554688 412.390625 281.371094 413.0625 C 282.191406 413.734375 282.972656 414.445312 283.722656 415.195312 C 284.472656 415.941406 285.179688 416.726562 285.851562 417.542969 C 286.523438 418.363281 287.152344 419.210938 287.742188 420.09375 C 288.332031 420.972656 288.875 421.878906 289.371094 422.8125 C 289.871094 423.746094 290.324219 424.703125 290.730469 425.679688 C 291.132812 426.660156 291.492188 427.652344 291.796875 428.667969 C 292.105469 429.679688 292.363281 430.707031 292.570312 431.746094 C 292.773438 432.78125 292.929688 433.828125 293.035156 434.882812 C 293.136719 435.9375 293.191406 436.992188 293.191406 438.050781 Z M 293.191406 438.050781 " fill-opacity="1" fill-rule="nonzero"/></g><g clip-path="url(#d84c7b6135)"><path fill="#545454" d="M 331.066406 415.121094 L 586.242188 415.121094 L 586.242188 460.984375 L 331.066406 460.984375 Z M 331.066406 415.121094 " fill-opacity="1" fill-rule="nonzero"/></g><g clip-path="url(#600c57ba88)"><g clip-path="url(#8e03ffaa89)"><path stroke-linecap="butt" transform="matrix(0.75, 0, 0, 0.75, 137.234807, 81.001847)" fill="none" stroke-linejoin="miter" d="M 44.999426 -0.00246283 L 675.343208 -0.00246283 C 687.280709 -0.00246283 698.723417 4.742329 707.166126 13.179829 C 715.603627 21.61733 720.34321 33.065247 720.34321 44.997539 L 720.34321 608.153818 C 720.34321 620.08611 715.603627 631.534027 707.166126 639.971528 C 698.723417 648.409028 687.280709 653.15382 675.343208 653.15382 L 44.999426 653.15382 C 33.067134 653.15382 21.619217 648.409028 13.181716 639.971528 C 4.739008 631.534027 -0.000575995 620.08611 -0.000575995 608.153818 L -0.000575995 44.997539 C -0.000575995 33.065247 4.739008 21.61733 13.181716 13.179829 C 21.619217 4.742329 33.067134 -0.00246283 44.999426 -0.00246283 Z M 44.999426 -0.00246283 " stroke="#545454" stroke-width="28" stroke-opacity="1" stroke-miterlimit="4"/></g></g><g fill="#545454" fill-opacity="1"><g transform="translate(160.296931, 727.18445)"><g><path d="M 113.386719 -79.542969 C 109.433594 -85.347656 100.789062 -93.996094 93.746094 -100.046875 L 86.707031 -95.230469 C 93.871094 -88.929688 102.269531 -80.035156 105.976562 -74.230469 Z M 102.394531 -52.617188 C 98.195312 -44.710938 92.757812 -37.175781 86.210938 -30.136719 C 84.113281 -38.289062 82.382812 -47.800781 81.148438 -58.296875 L 116.472656 -58.296875 L 116.472656 -67.066406 L 80.160156 -67.066406 C 79.171875 -78.0625 78.679688 -89.917969 78.679688 -102.269531 L 69.292969 -102.269531 C 69.414062 -90.164062 69.910156 -78.308594 71.019531 -67.066406 L 42.734375 -67.066406 L 42.734375 -88.558594 C 50.269531 -90.164062 57.433594 -92.140625 63.363281 -94.242188 L 56.816406 -101.777344 C 45.207031 -97.453125 25.320312 -93.253906 8.027344 -90.660156 C 9.261719 -88.4375 10.5 -85.226562 10.992188 -83 C 18.28125 -83.988281 26.0625 -85.226562 33.71875 -86.707031 L 33.71875 -67.066406 L 7.289062 -67.066406 L 7.289062 -58.296875 L 33.71875 -58.296875 L 33.71875 -36.683594 C 22.972656 -34.460938 12.96875 -32.359375 5.558594 -31.125 L 8.152344 -21.863281 C 15.5625 -23.46875 24.457031 -25.566406 33.71875 -27.542969 L 33.71875 -2.46875 C 33.71875 -0.246094 32.976562 0.371094 30.753906 0.371094 C 28.65625 0.492188 21.367188 0.617188 13.464844 0.246094 C 14.820312 2.839844 16.425781 7.039062 16.921875 9.511719 C 26.925781 9.511719 33.597656 9.261719 37.425781 7.78125 C 41.253906 6.300781 42.734375 3.582031 42.734375 -2.347656 L 42.734375 -29.765625 C 50.269531 -31.496094 57.929688 -33.226562 65.460938 -35.078125 L 64.84375 -43.351562 C 57.558594 -41.746094 50.023438 -40.140625 42.734375 -38.535156 L 42.734375 -58.296875 L 71.761719 -58.296875 C 73.367188 -44.960938 75.714844 -32.730469 78.679688 -22.480469 C 69.910156 -14.328125 59.78125 -7.535156 49.40625 -2.46875 C 51.753906 -0.492188 54.347656 2.59375 55.703125 4.816406 C 64.96875 0 73.738281 -6.175781 81.765625 -13.339844 C 87.449219 1.113281 94.859375 9.757812 104.617188 9.757812 C 113.878906 9.757812 117.089844 3.828125 118.820312 -16.550781 C 116.226562 -17.414062 113.015625 -19.515625 111.039062 -21.492188 C 110.296875 -5.683594 108.816406 0.617188 105.480469 0.617188 C 99.304688 0.617188 93.746094 -7.289062 89.054688 -20.257812 C 97.699219 -29.027344 104.988281 -38.785156 110.546875 -49.28125 Z M 102.394531 -52.617188 "/></g></g></g><g fill="#545454" fill-opacity="1"><g transform="translate(283.796827, 727.18445)"><g><path d="M 45.453125 -49.527344 L 19.515625 -49.527344 L 19.515625 -75.34375 L 45.453125 -75.34375 Z M 19.515625 -11.734375 L 19.515625 -41.378906 L 45.453125 -41.378906 L 45.453125 -11.734375 Z M 29.890625 -103.628906 C 29.027344 -97.824219 26.800781 -89.546875 24.949219 -83.617188 L 11.117188 -83.617188 L 11.117188 6.300781 L 19.515625 6.300781 L 19.515625 -3.457031 L 53.851562 -3.457031 L 53.851562 -83.617188 L 33.347656 -83.617188 C 35.449219 -88.929688 37.671875 -95.722656 39.773438 -101.777344 Z M 114.25 -83.988281 L 77.320312 -83.988281 C 79.417969 -89.792969 81.148438 -95.722656 82.632812 -101.777344 L 73.863281 -103.875 C 69.910156 -86.953125 63.238281 -69.910156 54.964844 -59.039062 C 56.941406 -57.804688 60.890625 -55.335938 62.5 -53.851562 C 66.820312 -59.65625 70.648438 -67.191406 74.109375 -75.46875 L 105.480469 -75.46875 C 103.875 -26.308594 102.023438 -7.535156 97.945312 -3.210938 C 96.710938 -1.605469 95.351562 -1.359375 92.882812 -1.359375 C 90.042969 -1.359375 82.632812 -1.359375 74.601562 -2.101562 C 76.332031 0.492188 77.441406 4.199219 77.691406 6.917969 C 84.605469 7.289062 91.648438 7.535156 95.96875 7.039062 C 100.167969 6.667969 103.011719 5.558594 105.726562 2.101562 C 110.667969 -3.953125 112.273438 -22.972656 114.25 -79.296875 Z M 94.734375 -28.410156 C 90.78125 -35.695312 82.261719 -47.554688 75.34375 -56.324219 L 68.179688 -52.121094 C 74.972656 -43.230469 83.25 -31.003906 86.953125 -23.589844 Z M 94.734375 -28.410156 "/></g></g></g><g fill="#545454" fill-opacity="1"><g transform="translate(407.296723, 727.18445)"><g><path d="M 36.683594 -88.066406 C 34.707031 -92.386719 30.753906 -98.8125 27.171875 -103.875 L 20.007812 -100.292969 C 23.34375 -95.230469 27.421875 -88.3125 29.148438 -83.742188 Z M 40.636719 -26.0625 L 40.636719 -5.683594 L 19.640625 -5.683594 L 19.640625 -26.0625 Z M 48.789062 -33.71875 L 11.734375 -33.71875 L 11.734375 7.78125 L 19.640625 7.78125 L 19.640625 1.976562 L 48.789062 1.976562 Z M 11.609375 -42.859375 L 49.160156 -42.859375 L 49.160156 -50.148438 L 11.609375 -50.148438 Z M 11.609375 -58.917969 L 49.28125 -58.917969 L 49.28125 -66.203125 L 11.609375 -66.203125 Z M 6.421875 -74.847656 L 53.109375 -74.847656 L 53.109375 -82.382812 L 6.421875 -82.382812 Z M 118.328125 -93.007812 L 55.703125 -93.007812 L 55.703125 -84.113281 L 90.289062 -84.113281 L 90.289062 -4.324219 C 90.289062 -1.976562 89.300781 -1.234375 86.832031 -1.113281 C 84.113281 -0.863281 75.097656 -0.863281 65.585938 -1.234375 C 67.191406 1.234375 68.921875 5.683594 69.292969 8.152344 C 81.273438 8.152344 88.929688 8.027344 93.375 6.421875 C 97.824219 5.0625 99.304688 1.851562 99.304688 -4.324219 L 99.304688 -84.113281 L 118.328125 -84.113281 Z M 118.328125 -93.007812 "/></g></g></g><g fill="#545454" fill-opacity="1"><g transform="translate(530.796618, 727.18445)"><g><path d="M 99.183594 -80.777344 L 75.34375 -80.777344 L 75.34375 -92.386719 L 99.183594 -92.386719 Z M 107.703125 -98.5625 L 66.945312 -98.5625 L 66.945312 -74.601562 L 107.703125 -74.601562 Z M 48.417969 -80.777344 L 24.828125 -80.777344 L 24.828125 -92.386719 L 48.417969 -92.386719 Z M 57.0625 -98.5625 L 16.550781 -98.5625 L 16.550781 -74.601562 L 57.0625 -74.601562 Z M 28.777344 -32.855469 L 28.777344 -43.476562 L 56.691406 -43.476562 L 56.691406 -32.855469 Z M 28.777344 -61.015625 L 56.691406 -61.015625 L 56.691406 -50.515625 L 28.777344 -50.515625 Z M 95.476562 -50.515625 L 66.078125 -50.515625 L 66.078125 -61.015625 L 95.476562 -61.015625 Z M 95.476562 -32.855469 L 66.078125 -32.855469 L 66.078125 -43.476562 L 95.476562 -43.476562 Z M 116.226562 -16.058594 L 66.078125 -16.058594 L 66.078125 -25.445312 L 104.863281 -25.445312 L 104.863281 -68.425781 L 19.886719 -68.425781 L 19.886719 -25.445312 L 56.691406 -25.445312 L 56.691406 -16.058594 L 7.535156 -16.058594 L 7.535156 -8.027344 L 56.691406 -8.027344 L 56.691406 9.386719 L 66.078125 9.386719 L 66.078125 -8.027344 L 116.226562 -8.027344 Z M 116.226562 -16.058594 "/></g></g></g></svg>